<?xml version="1.0" encoding="UTF-8" standalone="no"?>
<svg
   xmlns:dc="http://purl.org/dc/elements/1.1/"
   xmlns:cc="http://creativecommons.org/ns#"
   xmlns:rdf="http://www.w3.org/1999/02/22-rdf-syntax-ns#"
   xmlns:svg="http://www.w3.org/2000/svg"
   xmlns="http://www.w3.org/2000/svg"
   xmlns:sodipodi="http://sodipodi.sourceforge.net/DTD/sodipodi-0.dtd"
   xmlns:inkscape="http://www.inkscape.org/namespaces/inkscape"
   sodipodi:docname="runko_180mmkerf.svg"
   id="svg196"
   version="1.1"
   viewBox="0 0 210 297"
   height="297mm"
   width="210mm"
   inkscape:version="1.0.2-2 (e86c870879, 2021-01-15)">
  <defs
     id="defs190" />
  <sodipodi:namedview
     id="base"
     pagecolor="#ffffff"
     bordercolor="#666666"
     borderopacity="1.0"
     inkscape:pageopacity="0.0"
     inkscape:pageshadow="2"
     inkscape:zoom="0.7"
     inkscape:cx="666.88796"
     inkscape:cy="597.23644"
     inkscape:document-units="mm"
     inkscape:current-layer="layer1"
     inkscape:document-rotation="0"
     showgrid="false"
     inkscape:window-width="1920"
     inkscape:window-height="1017"
     inkscape:window-x="-8"
     inkscape:window-y="-8"
     inkscape:window-maximized="1"
     inkscape:snap-object-midpoints="true"
     inkscape:snap-center="true" />
  <metadata
     id="metadata193">
    <rdf:RDF>
      <cc:Work
         rdf:about="">
        <dc:format>image/svg+xml</dc:format>
        <dc:type
           rdf:resource="http://purl.org/dc/dcmitype/StillImage" />
        <dc:title></dc:title>
      </cc:Work>
    </rdf:RDF>
  </metadata>
  <g
     inkscape:label="Layer 1"
     inkscape:groupmode="layer"
     id="layer1">
    <g
       id="panel6269"
       style="stroke-width:0.02;stroke-miterlimit:4;stroke-dasharray:none">
      <path
         style="fill:none;stroke:#000000;stroke-width:0.02;stroke-miterlimit:4;stroke-dasharray:none"
         d="M 58 168 L 63.915 168 L 63.915 165 L 70.085 165 L 70.085 168 L 75.915 168 L 75.915 165 L 82.085 165 L 82.085 168 L 87.915 168 L 87.915 165 L 94.085 165 L 94.085 168 L 99.915 168 L 99.915 165 L 106.085 165 L 106.085 168 L 111.915 168 L 111.915 165 L 118.085 165 L 118.085 168 L 123.915 168 L 123.915 165 L 130.085 165 L 130.085 168 L 135.915 168 L 135.915 165 L 142.085 165 L 142.085 168 L 147.915 168 L 147.915 165 L 154.085 165 L 154.085 168 L 159.915 168 L 159.915 165 L 166.085 165 L 166.085 168 L 171.915 168 L 171.915 165 L 178.085 165 L 178.085 168 L 183.915 168 L 183.915 165 L 190.085 165 L 190.085 168 L 195.915 168 L 195.915 165 L 202.085 165 L 202.085 168 L 207.915 168 L 207.915 165 L 214.085 165 L 214.085 168 L 219.915 168 L 219.915 165 L 226.085 165 L 226.085 168 L 231.915 168 L 231.915 165 L 238.085 165 L 238.085 168 L 244 168"
         id="path345" />
      <path
         style="fill:none;stroke:#000000;stroke-width:0.02;stroke-miterlimit:4;stroke-dasharray:none"
         d="M 244 168 L 244 171.485 L 241 171.485 L 241 177.315 L 244 177.315 L 244 183.885 L 241 183.885 L 241 189.715 L 244 189.715 L 244 196.285 L 241 196.285 L 241 202.115 L 244 202.115 L 244 208.685 L 241 208.685 L 241 214.515 L 244 214.515 L 244 218"
         id="path347" />
      <path
         style="fill:none;stroke:#000000;stroke-width:0.02;stroke-miterlimit:4;stroke-dasharray:none"
         d="M 244 218 L 238.085 218 L 238.085 221 L 231.915 221 L 231.915 218 L 226.085 218 L 226.085 221 L 219.915 221 L 219.915 218 L 214.085 218 L 214.085 221 L 207.915 221 L 207.915 218 L 202.085 218 L 202.085 221 L 195.915 221 L 195.915 218 L 190.085 218 L 190.085 221 L 183.915 221 L 183.915 218 L 178.085 218 L 178.085 221 L 171.915 221 L 171.915 218 L 166.085 218 L 166.085 221 L 159.915 221 L 159.915 218 L 154.085 218 L 154.085 221 L 147.915 221 L 147.915 218 L 142.085 218 L 142.085 221 L 135.915 221 L 135.915 218 L 130.085 218 L 130.085 221 L 123.915 221 L 123.915 218 L 118.085 218 L 118.085 221 L 111.915 221 L 111.915 218 L 106.085 218 L 106.085 221 L 99.915 221 L 99.915 218 L 94.085 218 L 94.085 221 L 87.915 221 L 87.915 218 L 82.085 218 L 82.085 221 L 75.915 221 L 75.915 218 L 70.085 218 L 70.085 221 L 63.915 221 L 63.915 218 L 58 218"
         id="path349" />
      <path
         style="fill:none;stroke:#000000;stroke-width:0.02;stroke-miterlimit:4;stroke-dasharray:none"
         d="M 58 218 L 58 214.515 L 61 214.515 L 61 208.685 L 58 208.685 L 58 202.115 L 61 202.115 L 61 196.285 L 58 196.285 L 58 189.715 L 61 189.715 L 61 183.885 L 58 183.885 L 58 177.315 L 61 177.315 L 61 171.485 L 58 171.485 L 58 168"
         id="path351" />
    </g>
    <g
       id="panel1127"
       style="stroke-width:0.02;stroke-miterlimit:4;stroke-dasharray:none">
      <path
         style="fill:none;stroke:#000000;stroke-width:0.02;stroke-miterlimit:4;stroke-dasharray:none"
         d="M 4 61 L 7.315 61 L 7.315 58 L 13.485 58 L 13.485 61 L 19.715 61 L 19.715 58 L 25.885 58 L 25.885 61 L 32.115 61 L 32.115 58 L 38.285 58 L 38.285 61 L 44.515 61 L 44.515 58 L 50.685 58 L 50.685 61 L 54 61"
         id="path399" />
      <path
         style="fill:none;stroke:#000000;stroke-width:0.02;stroke-miterlimit:4;stroke-dasharray:none"
         d="M 54 61 L 54 64.3594 L 57 64.3594 L 57 70.5294 L 54 70.5294 L 54 76.8039 L 57 76.8039 L 57 82.9739 L 54 82.9739 L 54 89.2483 L 57 89.2483 L 57 95.4183 L 54 95.4183 L 54 101.693 L 57 101.693 L 57 107.863 L 54 107.863 L 54 114.137 L 57 114.137 L 57 120.307 L 54 120.307 L 54 126.582 L 57 126.582 L 57 132.752 L 54 132.752 L 54 139.026 L 57 139.026 L 57 145.196 L 54 145.196 L 54 151.471 L 57 151.471 L 57 157.641 L 54 157.641 L 54 161"
         id="path401" />
      <path
         style="fill:none;stroke:#000000;stroke-width:0.02;stroke-miterlimit:4;stroke-dasharray:none"
         d="M 54 161 L 50.685 161 L 50.685 164 L 44.515 164 L 44.515 161 L 38.285 161 L 38.285 164 L 32.115 164 L 32.115 161 L 25.885 161 L 25.885 164 L 19.715 164 L 19.715 161 L 13.485 161 L 13.485 164 L 7.315 164 L 7.315 161 L 4 161"
         id="path403" />
      <path
         style="fill:none;stroke:#000000;stroke-width:0.02;stroke-miterlimit:4;stroke-dasharray:none"
         d="M 4 161 L 4 157.641 L 1 157.641 L 1 151.471 L 4 151.471 L 4 145.196 L 1 145.196 L 1 139.026 L 4 139.026 L 4 132.752 L 1 132.752 L 1 126.582 L 4 126.582 L 4 120.307 L 1 120.307 L 1 114.137 L 4 114.137 L 4 107.863 L 1 107.863 L 1 101.693 L 4 101.693 L 4 95.4183 L 1 95.4183 L 1 89.2483 L 4 89.2483 L 4 82.9739 L 1 82.9739 L 1 76.8039 L 4 76.8039 L 4 70.5294 L 1 70.5294 L 1 64.3594 L 4 64.3594 L 4 61"
         id="path405" />
    </g>
    <g
       id="panel1989"
       style="stroke-width:0.02;stroke-miterlimit:4;stroke-dasharray:none">
      <path
         style="fill:none;stroke:#000000;stroke-width:0.02;stroke-miterlimit:4;stroke-dasharray:none"
         d="M 58 58 L 64.085 58 L 64.085 61 L 69.915 61 L 69.915 58 L 76.085 58 L 76.085 61 L 81.915 61 L 81.915 58 L 88.085 58 L 88.085 61 L 93.915 61 L 93.915 58 L 100.085 58 L 100.085 61 L 105.915 61 L 105.915 58 L 112.085 58 L 112.085 61 L 117.915 61 L 117.915 58 L 124.085 58 L 124.085 61 L 129.915 61 L 129.915 58 L 136.085 58 L 136.085 61 L 141.915 61 L 141.915 58 L 148.085 58 L 148.085 61 L 153.915 61 L 153.915 58 L 160.085 58 L 160.085 61 L 165.915 61 L 165.915 58 L 172.085 58 L 172.085 61 L 177.915 61 L 177.915 58 L 184.085 58 L 184.085 61 L 189.915 61 L 189.915 58 L 196.085 58 L 196.085 61 L 201.915 61 L 201.915 58 L 208.085 58 L 208.085 61 L 213.915 61 L 213.915 58 L 220.085 58 L 220.085 61 L 225.915 61 L 225.915 58 L 232.085 58 L 232.085 61 L 237.915 61 L 237.915 58 L 244 58"
         id="path453" />
      <path
         style="fill:none;stroke:#000000;stroke-width:0.02;stroke-miterlimit:4;stroke-dasharray:none"
         d="M 244 58 L 244 64.5294 L 241 64.5294 L 241 70.3594 L 244 70.3594 L 244 76.9739 L 241 76.9739 L 241 82.8039 L 244 82.8039 L 244 89.4183 L 241 89.4183 L 241 95.2483 L 244 95.2483 L 244 101.863 L 241 101.863 L 241 107.693 L 244 107.693 L 244 114.307 L 241 114.307 L 241 120.137 L 244 120.137 L 244 126.752 L 241 126.752 L 241 132.582 L 244 132.582 L 244 139.196 L 241 139.196 L 241 145.026 L 244 145.026 L 244 151.641 L 241 151.641 L 241 157.471 L 244 157.471 L 244 164"
         id="path455" />
      <path
         style="fill:none;stroke:#000000;stroke-width:0.02;stroke-miterlimit:4;stroke-dasharray:none"
         d="M 244 164 L 237.915 164 L 237.915 161 L 232.085 161 L 232.085 164 L 225.915 164 L 225.915 161 L 220.085 161 L 220.085 164 L 213.915 164 L 213.915 161 L 208.085 161 L 208.085 164 L 201.915 164 L 201.915 161 L 196.085 161 L 196.085 164 L 189.915 164 L 189.915 161 L 184.085 161 L 184.085 164 L 177.915 164 L 177.915 161 L 172.085 161 L 172.085 164 L 165.915 164 L 165.915 161 L 160.085 161 L 160.085 164 L 153.915 164 L 153.915 161 L 148.085 161 L 148.085 164 L 141.915 164 L 141.915 161 L 136.085 161 L 136.085 164 L 129.915 164 L 129.915 161 L 124.085 161 L 124.085 164 L 117.915 164 L 117.915 161 L 112.085 161 L 112.085 164 L 105.915 164 L 105.915 161 L 100.085 161 L 100.085 164 L 93.915 164 L 93.915 161 L 88.085 161 L 88.085 164 L 81.915 164 L 81.915 161 L 76.085 161 L 76.085 164 L 69.915 164 L 69.915 161 L 64.085 161 L 64.085 164 L 58 164"
         id="path457" />
      <path
         style="fill:none;stroke:#000000;stroke-width:0.02;stroke-miterlimit:4;stroke-dasharray:none"
         d="M 58 164 L 58 157.471 L 61 157.471 L 61 151.641 L 58 151.641 L 58 145.026 L 61 145.026 L 61 139.196 L 58 139.196 L 58 132.582 L 61 132.582 L 61 126.752 L 58 126.752 L 58 120.137 L 61 120.137 L 61 114.307 L 58 114.307 L 58 107.693 L 61 107.693 L 61 101.863 L 58 101.863 L 58 95.2483 L 61 95.2483 L 61 89.4183 L 58 89.4183 L 58 82.8039 L 61 82.8039 L 61 76.9739 L 58 76.9739 L 58 70.3594 L 61 70.3594 L 61 64.5294 L 58 64.5294 L 58 58"
         id="path459" />
    </g>
    <g
       id="panel5194"
       style="stroke-width:0.02;stroke-miterlimit:4;stroke-dasharray:none">
      <path
         style="fill:none;stroke:#000000;stroke-width:0.02;stroke-miterlimit:4;stroke-dasharray:none"
         d="M 248 61 L 251.315 61 L 251.315 58 L 257.485 58 L 257.485 61 L 263.715 61 L 263.715 58 L 269.885 58 L 269.885 61 L 276.115 61 L 276.115 58 L 282.285 58 L 282.285 61 L 288.515 61 L 288.515 58 L 294.685 58 L 294.685 61 L 298 61"
         id="path462" />
      <path
         style="fill:none;stroke:#000000;stroke-width:0.02;stroke-miterlimit:4;stroke-dasharray:none"
         d="M 298 61 L 298 64.3594 L 301 64.3594 L 301 70.5294 L 298 70.5294 L 298 76.8039 L 301 76.8039 L 301 82.9739 L 298 82.9739 L 298 89.2483 L 301 89.2483 L 301 95.4183 L 298 95.4183 L 298 101.693 L 301 101.693 L 301 107.863 L 298 107.863 L 298 114.137 L 301 114.137 L 301 120.307 L 298 120.307 L 298 126.582 L 301 126.582 L 301 132.752 L 298 132.752 L 298 139.026 L 301 139.026 L 301 145.196 L 298 145.196 L 298 151.471 L 301 151.471 L 301 157.641 L 298 157.641 L 298 161"
         id="path464" />
      <path
         style="fill:none;stroke:#000000;stroke-width:0.02;stroke-miterlimit:4;stroke-dasharray:none"
         d="M 298 161 L 294.685 161 L 294.685 164 L 288.515 164 L 288.515 161 L 282.285 161 L 282.285 164 L 276.115 164 L 276.115 161 L 269.885 161 L 269.885 164 L 263.715 164 L 263.715 161 L 257.485 161 L 257.485 164 L 251.315 164 L 251.315 161 L 248 161"
         id="path466" />
      <path
         style="fill:none;stroke:#000000;stroke-width:0.02;stroke-miterlimit:4;stroke-dasharray:none"
         d="M 248 161 L 248 157.641 L 245 157.641 L 245 151.471 L 248 151.471 L 248 145.196 L 245 145.196 L 245 139.026 L 248 139.026 L 248 132.752 L 245 132.752 L 245 126.582 L 248 126.582 L 248 120.307 L 245 120.307 L 245 114.137 L 248 114.137 L 248 107.863 L 245 107.863 L 245 101.693 L 248 101.693 L 248 95.4183 L 245 95.4183 L 245 89.2483 L 248 89.2483 L 248 82.9739 L 245 82.9739 L 245 76.8039 L 248 76.8039 L 248 70.5294 L 245 70.5294 L 245 64.3594 L 248 64.3594 L 248 61"
         id="path468" />
    </g>
    <g
       id="panel2404"
       style="stroke-width:0.02;stroke-miterlimit:4;stroke-dasharray:none">
      <path
         style="fill:none;stroke:#000000;stroke-width:0.02;stroke-miterlimit:4;stroke-dasharray:none"
         d="M 302 58 L 308.085 58 L 308.085 61 L 313.915 61 L 313.915 58 L 320.085 58 L 320.085 61 L 325.915 61 L 325.915 58 L 332.085 58 L 332.085 61 L 337.915 61 L 337.915 58 L 344.085 58 L 344.085 61 L 349.915 61 L 349.915 58 L 356.085 58 L 356.085 61 L 361.915 61 L 361.915 58 L 368.085 58 L 368.085 61 L 373.915 61 L 373.915 58 L 380.085 58 L 380.085 61 L 385.915 61 L 385.915 58 L 392.085 58 L 392.085 61 L 397.915 61 L 397.915 58 L 404.085 58 L 404.085 61 L 409.915 61 L 409.915 58 L 416.085 58 L 416.085 61 L 421.915 61 L 421.915 58 L 428.085 58 L 428.085 61 L 433.915 61 L 433.915 58 L 440.085 58 L 440.085 61 L 445.915 61 L 445.915 58 L 452.085 58 L 452.085 61 L 457.915 61 L 457.915 58 L 464.085 58 L 464.085 61 L 469.915 61 L 469.915 58 L 476.085 58 L 476.085 61 L 481.915 61 L 481.915 58 L 488 58"
         id="path471" />
      <path
         style="fill:none;stroke:#000000;stroke-width:0.02;stroke-miterlimit:4;stroke-dasharray:none"
         d="M 488 58 L 488 64.5294 L 485 64.5294 L 485 70.3594 L 488 70.3594 L 488 76.9739 L 485 76.9739 L 485 82.8039 L 488 82.8039 L 488 89.4183 L 485 89.4183 L 485 95.2483 L 488 95.2483 L 488 101.863 L 485 101.863 L 485 107.693 L 488 107.693 L 488 114.307 L 485 114.307 L 485 120.137 L 488 120.137 L 488 126.752 L 485 126.752 L 485 132.582 L 488 132.582 L 488 139.196 L 485 139.196 L 485 145.026 L 488 145.026 L 488 151.641 L 485 151.641 L 485 157.471 L 488 157.471 L 488 164"
         id="path473" />
      <path
         style="fill:none;stroke:#000000;stroke-width:0.02;stroke-miterlimit:4;stroke-dasharray:none"
         d="M 488 164 L 481.915 164 L 481.915 161 L 476.085 161 L 476.085 164 L 469.915 164 L 469.915 161 L 464.085 161 L 464.085 164 L 457.915 164 L 457.915 161 L 452.085 161 L 452.085 164 L 445.915 164 L 445.915 161 L 440.085 161 L 440.085 164 L 433.915 164 L 433.915 161 L 428.085 161 L 428.085 164 L 421.915 164 L 421.915 161 L 416.085 161 L 416.085 164 L 409.915 164 L 409.915 161 L 404.085 161 L 404.085 164 L 397.915 164 L 397.915 161 L 392.085 161 L 392.085 164 L 385.915 164 L 385.915 161 L 380.085 161 L 380.085 164 L 373.915 164 L 373.915 161 L 368.085 161 L 368.085 164 L 361.915 164 L 361.915 161 L 356.085 161 L 356.085 164 L 349.915 164 L 349.915 161 L 344.085 161 L 344.085 164 L 337.915 164 L 337.915 161 L 332.085 161 L 332.085 164 L 325.915 164 L 325.915 161 L 320.085 161 L 320.085 164 L 313.915 164 L 313.915 161 L 308.085 161 L 308.085 164 L 302 164"
         id="path475" />
      <path
         style="fill:none;stroke:#000000;stroke-width:0.02;stroke-miterlimit:4;stroke-dasharray:none"
         d="M 302 164 L 302 157.471 L 305 157.471 L 305 151.641 L 302 151.641 L 302 145.026 L 305 145.026 L 305 139.196 L 302 139.196 L 302 132.582 L 305 132.582 L 305 126.752 L 302 126.752 L 302 120.137 L 305 120.137 L 305 114.307 L 302 114.307 L 302 107.693 L 305 107.693 L 305 101.863 L 302 101.863 L 302 95.2483 L 305 95.2483 L 305 89.4183 L 302 89.4183 L 302 82.8039 L 305 82.8039 L 305 76.9739 L 302 76.9739 L 302 70.3594 L 305 70.3594 L 305 64.5294 L 302 64.5294 L 302 58"
         id="path477" />
    </g>
    <g
       id="panel2109"
       style="stroke-width:0.02;stroke-miterlimit:4;stroke-dasharray:none">
      <path
         style="fill:none;stroke:#000000;stroke-width:0.02;stroke-miterlimit:4;stroke-dasharray:none"
         d="M 58 4 L 63.915 4 L 63.915 1 L 70.085 1 L 70.085 4 L 75.915 4 L 75.915 1 L 82.085 1 L 82.085 4 L 87.915 4 L 87.915 1 L 94.085 1 L 94.085 4 L 99.915 4 L 99.915 1 L 106.085 1 L 106.085 4 L 111.915 4 L 111.915 1 L 118.085 1 L 118.085 4 L 123.915 4 L 123.915 1 L 130.085 1 L 130.085 4 L 135.915 4 L 135.915 1 L 142.085 1 L 142.085 4 L 147.915 4 L 147.915 1 L 154.085 1 L 154.085 4 L 159.915 4 L 159.915 1 L 166.085 1 L 166.085 4 L 171.915 4 L 171.915 1 L 178.085 1 L 178.085 4 L 183.915 4 L 183.915 1 L 190.085 1 L 190.085 4 L 195.915 4 L 195.915 1 L 202.085 1 L 202.085 4 L 207.915 4 L 207.915 1 L 214.085 1 L 214.085 4 L 219.915 4 L 219.915 1 L 226.085 1 L 226.085 4 L 231.915 4 L 231.915 1 L 238.085 1 L 238.085 4 L 244 4"
         id="path480" />
      <path
         style="fill:none;stroke:#000000;stroke-width:0.02;stroke-miterlimit:4;stroke-dasharray:none"
         d="M 244 4 L 244 7.485 L 241 7.485 L 241 13.315 L 244 13.315 L 244 19.885 L 241 19.885 L 241 25.715 L 244 25.715 L 244 32.285 L 241 32.285 L 241 38.115 L 244 38.115 L 244 44.685 L 241 44.685 L 241 50.515 L 244 50.515 L 244 54"
         id="path482" />
      <path
         style="fill:none;stroke:#000000;stroke-width:0.02;stroke-miterlimit:4;stroke-dasharray:none"
         d="M 244 54 L 238.085 54 L 238.085 57 L 231.915 57 L 231.915 54 L 226.085 54 L 226.085 57 L 219.915 57 L 219.915 54 L 214.085 54 L 214.085 57 L 207.915 57 L 207.915 54 L 202.085 54 L 202.085 57 L 195.915 57 L 195.915 54 L 190.085 54 L 190.085 57 L 183.915 57 L 183.915 54 L 178.085 54 L 178.085 57 L 171.915 57 L 171.915 54 L 166.085 54 L 166.085 57 L 159.915 57 L 159.915 54 L 154.085 54 L 154.085 57 L 147.915 57 L 147.915 54 L 142.085 54 L 142.085 57 L 135.915 57 L 135.915 54 L 130.085 54 L 130.085 57 L 123.915 57 L 123.915 54 L 118.085 54 L 118.085 57 L 111.915 57 L 111.915 54 L 106.085 54 L 106.085 57 L 99.915 57 L 99.915 54 L 94.085 54 L 94.085 57 L 87.915 57 L 87.915 54 L 82.085 54 L 82.085 57 L 75.915 57 L 75.915 54 L 70.085 54 L 70.085 57 L 63.915 57 L 63.915 54 L 58 54"
         id="path484" />
      <path
         style="fill:none;stroke:#000000;stroke-width:0.02;stroke-miterlimit:4;stroke-dasharray:none"
         d="M 58 54 L 58 50.515 L 61 50.515 L 61 44.685 L 58 44.685 L 58 38.115 L 61 38.115 L 61 32.285 L 58 32.285 L 58 25.715 L 61 25.715 L 61 19.885 L 58 19.885 L 58 13.315 L 61 13.315 L 61 7.485 L 58 7.485 L 58 4"
         id="path486" />
    </g>
    <g
       id="panel1955"
       transform="translate(282.91501,-19.000001)"
       style="stroke-width:0.02;stroke-miterlimit:4;stroke-dasharray:none">
      <path
         style="fill:none;stroke:#000000;stroke-width:0.02;stroke-miterlimit:4;stroke-dasharray:none"
         d="m 40,115 h 4.915 v 0 h 6.17 v 0 h 7.83 v 0 h 6.17 v 0 H 70"
         id="path794" />
      <path
         style="fill:none;stroke:#000000;stroke-width:0.02;stroke-miterlimit:4;stroke-dasharray:none"
         d="m 70,115 v 4.915 0 6.17 0 7.83 0 6.17 0 4.915"
         id="path796" />
      <path
         style="fill:none;stroke:#000000;stroke-width:0.02;stroke-miterlimit:4;stroke-dasharray:none"
         d="m 70,145 h -4.915 v 0 h -6.17 v 0 h -7.83 v 0 h -6.17 v 0 H 40"
         id="path798" />
      <path
         style="fill:none;stroke:#000000;stroke-width:0.02;stroke-miterlimit:4;stroke-dasharray:none"
         d="m 40,145 v -4.915 0 -6.17 0 -7.83 0 -6.17 0 V 115"
         id="path800" />
    </g>
    <g
       id="panel1939"
       transform="translate(197.585,115.5)"
       style="stroke-width:0.02;stroke-miterlimit:4;stroke-dasharray:none">
      <path
         style="fill:none;stroke:#000000;stroke-width:0.02;stroke-miterlimit:4;stroke-dasharray:none"
         d="m 3,70 h 4.415 v 0 h 6.17 v 0 H 18"
         id="path964" />
      <path
         style="fill:none;stroke:#000000;stroke-width:0.02;stroke-miterlimit:4;stroke-dasharray:none"
         d="m 18,70 v 4.415 0 6.17 0 V 85"
         id="path966" />
      <path
         style="fill:none;stroke:#000000;stroke-width:0.02;stroke-miterlimit:4;stroke-dasharray:none"
         d="m 18,85 h -4.415 v 0 h -6.17 v 0 H 3"
         id="path968" />
      <path
         style="fill:none;stroke:#000000;stroke-width:0.02;stroke-miterlimit:4;stroke-dasharray:none"
         d="m 3,85 v -4.415 0 -6.17 0 V 70"
         id="path970" />
    </g>
  </g>
</svg>
