<?xml version="1.0" encoding="UTF-8" standalone="no"?>
<svg
   xmlns:dc="http://purl.org/dc/elements/1.1/"
   xmlns:cc="http://creativecommons.org/ns#"
   xmlns:rdf="http://www.w3.org/1999/02/22-rdf-syntax-ns#"
   xmlns:svg="http://www.w3.org/2000/svg"
   xmlns="http://www.w3.org/2000/svg"
   xmlns:sodipodi="http://sodipodi.sourceforge.net/DTD/sodipodi-0.dtd"
   xmlns:inkscape="http://www.inkscape.org/namespaces/inkscape"
   width="210mm"
   height="297mm"
   viewBox="0 0 210 297"
   version="1.1"
   id="svg1931"
   sodipodi:docname="torni_180mmkerf.svg"
   inkscape:version="1.0.2-2 (e86c870879, 2021-01-15)">
  <defs
     id="defs1925" />
  <sodipodi:namedview
     id="base"
     pagecolor="#ffffff"
     bordercolor="#666666"
     borderopacity="1.0"
     inkscape:pageopacity="0.0"
     inkscape:pageshadow="2"
     inkscape:zoom="0.49497475"
     inkscape:cx="1910.447"
     inkscape:cy="953.19295"
     inkscape:document-units="mm"
     inkscape:current-layer="layer1"
     inkscape:document-rotation="0"
     showgrid="false"
     inkscape:window-width="1920"
     inkscape:window-height="1017"
     inkscape:window-x="-8"
     inkscape:window-y="-8"
     inkscape:window-maximized="1"
     inkscape:snap-center="true"
     inkscape:snap-object-midpoints="true"
     inkscape:snap-text-baseline="true" />
  <metadata
     id="metadata1928">
    <rdf:RDF>
      <cc:Work
         rdf:about="">
        <dc:format>image/svg+xml</dc:format>
        <dc:type
           rdf:resource="http://purl.org/dc/dcmitype/StillImage" />
        <dc:title />
      </cc:Work>
    </rdf:RDF>
  </metadata>
  <g
     inkscape:label="Layer 1"
     inkscape:groupmode="layer"
     id="layer1">
    <g
       id="panel5967"
       style="stroke-width:0.02;stroke-miterlimit:4;stroke-dasharray:none">
      <path
         style="fill:none;stroke:#000000;stroke-width:0.02;stroke-miterlimit:4;stroke-dasharray:none"
         d="M 188 228 L 195.915 228 L 195.915 225 L 202.085 225 L 202.085 228 L 209.915 228 L 209.915 225 L 216.085 225 L 216.085 228 L 224 228"
         id="path2026" />
      <path
         style="fill:none;stroke:#000000;stroke-width:0.02;stroke-miterlimit:4;stroke-dasharray:none"
         d="M 224 228 L 224 231.085 L 221 231.085 L 221 236.915 L 224 236.915 L 224 243.085 L 221 243.085 L 221 248.915 L 224 248.915 L 224 255.085 L 221 255.085 L 221 260.915 L 224 260.915 L 224 267.085 L 221 267.085 L 221 272.915 L 224 272.915 L 224 279.085 L 221 279.085 L 221 284.915 L 224 284.915 L 224 291.085 L 221 291.085 L 221 296.915 L 224 296.915 L 224 303.085 L 221 303.085 L 221 308.915 L 224 308.915 L 224 315.085 L 221 315.085 L 221 320.915 L 224 320.915 L 224 327.085 L 221 327.085 L 221 332.915 L 224 332.915 L 224 339.085 L 221 339.085 L 221 344.915 L 224 344.915 L 224 351.085 L 221 351.085 L 221 356.915 L 224 356.915 L 224 363.085 L 221 363.085 L 221 368.915 L 224 368.915 L 224 375.085 L 221 375.085 L 221 380.915 L 224 380.915 L 224 387.085 L 221 387.085 L 221 392.915 L 224 392.915 L 224 399.085 L 221 399.085 L 221 404.915 L 224 404.915 L 224 408"
         id="path2028" />
      <path
         style="fill:none;stroke:#000000;stroke-width:0.02;stroke-miterlimit:4;stroke-dasharray:none"
         d="M 224 408 L 216.085 408 L 216.085 411 L 209.915 411 L 209.915 408 L 202.085 408 L 202.085 411 L 195.915 411 L 195.915 408 L 188 408"
         id="path2030" />
      <path
         style="fill:none;stroke:#000000;stroke-width:0.02;stroke-miterlimit:4;stroke-dasharray:none"
         d="M 188 408 L 188 404.915 L 191 404.915 L 191 399.085 L 188 399.085 L 188 392.915 L 191 392.915 L 191 387.085 L 188 387.085 L 188 380.915 L 191 380.915 L 191 375.085 L 188 375.085 L 188 368.915 L 191 368.915 L 191 363.085 L 188 363.085 L 188 356.915 L 191 356.915 L 191 351.085 L 188 351.085 L 188 344.915 L 191 344.915 L 191 339.085 L 188 339.085 L 188 332.915 L 191 332.915 L 191 327.085 L 188 327.085 L 188 320.915 L 191 320.915 L 191 315.085 L 188 315.085 L 188 308.915 L 191 308.915 L 191 303.085 L 188 303.085 L 188 296.915 L 191 296.915 L 191 291.085 L 188 291.085 L 188 284.915 L 191 284.915 L 191 279.085 L 188 279.085 L 188 272.915 L 191 272.915 L 191 267.085 L 188 267.085 L 188 260.915 L 191 260.915 L 191 255.085 L 188 255.085 L 188 248.915 L 191 248.915 L 191 243.085 L 188 243.085 L 188 236.915 L 191 236.915 L 191 231.085 L 188 231.085 L 188 228"
         id="path2032" />
    </g>
    <g
       id="panel65"
       style="stroke-width:0.02;stroke-miterlimit:4;stroke-dasharray:none">
      <path
         style="fill:none;stroke:#000000;stroke-width:0.02;stroke-miterlimit:4;stroke-dasharray:none"
         d="M 4 191 L 6.915 191 L 6.915 188 L 13.085 188 L 13.085 191 L 18.915 191 L 18.915 188 L 25.085 188 L 25.085 191 L 30.915 191 L 30.915 188 L 37.085 188 L 37.085 191 L 42.915 191 L 42.915 188 L 49.085 188 L 49.085 191 L 54.915 191 L 54.915 188 L 61.085 188 L 61.085 191 L 66.915 191 L 66.915 188 L 73.085 188 L 73.085 191 L 78.915 191 L 78.915 188 L 85.085 188 L 85.085 191 L 90.915 191 L 90.915 188 L 97.085 188 L 97.085 191 L 102.915 191 L 102.915 188 L 109.085 188 L 109.085 191 L 114.915 191 L 114.915 188 L 121.085 188 L 121.085 191 L 126.915 191 L 126.915 188 L 133.085 188 L 133.085 191 L 138.915 191 L 138.915 188 L 145.085 188 L 145.085 191 L 150.915 191 L 150.915 188 L 157.085 188 L 157.085 191 L 162.915 191 L 162.915 188 L 169.085 188 L 169.085 191 L 174.915 191 L 174.915 188 L 181.085 188 L 181.085 191 L 184 191"
         id="path2080" />
      <path
         style="fill:none;stroke:#000000;stroke-width:0.02;stroke-miterlimit:4;stroke-dasharray:none"
         d="M 184 191 L 184 195.915 L 187 195.915 L 187 202.085 L 184 202.085 L 184 209.915 L 187 209.915 L 187 216.085 L 184 216.085 L 184 221"
         id="path2082" />
      <path
         style="fill:none;stroke:#000000;stroke-width:0.02;stroke-miterlimit:4;stroke-dasharray:none"
         d="M 184 221 L 181.085 221 L 181.085 224 L 174.915 224 L 174.915 221 L 169.085 221 L 169.085 224 L 162.915 224 L 162.915 221 L 157.085 221 L 157.085 224 L 150.915 224 L 150.915 221 L 145.085 221 L 145.085 224 L 138.915 224 L 138.915 221 L 133.085 221 L 133.085 224 L 126.915 224 L 126.915 221 L 121.085 221 L 121.085 224 L 114.915 224 L 114.915 221 L 109.085 221 L 109.085 224 L 102.915 224 L 102.915 221 L 97.085 221 L 97.085 224 L 90.915 224 L 90.915 221 L 85.085 221 L 85.085 224 L 78.915 224 L 78.915 221 L 73.085 221 L 73.085 224 L 66.915 224 L 66.915 221 L 61.085 221 L 61.085 224 L 54.915 224 L 54.915 221 L 49.085 221 L 49.085 224 L 42.915 224 L 42.915 221 L 37.085 221 L 37.085 224 L 30.915 224 L 30.915 221 L 25.085 221 L 25.085 224 L 18.915 224 L 18.915 221 L 13.085 221 L 13.085 224 L 6.915 224 L 6.915 221 L 4 221"
         id="path2084" />
      <path
         style="fill:none;stroke:#000000;stroke-width:0.02;stroke-miterlimit:4;stroke-dasharray:none"
         d="M 4 221 L 4 216.085 L 1 216.085 L 1 209.915 L 4 209.915 L 4 202.085 L 1 202.085 L 1 195.915 L 4 195.915 L 4 191"
         id="path2086" />
    </g>
    <g
       id="panel8390"
       style="stroke-width:0.02;stroke-miterlimit:4;stroke-dasharray:none">
      <path
         style="fill:none;stroke:#000000;stroke-width:0.02;stroke-miterlimit:4;stroke-dasharray:none"
         d="M 188 188 L 196.085 188 L 196.085 191 L 201.915 191 L 201.915 188 L 210.085 188 L 210.085 191 L 215.915 191 L 215.915 188 L 224 188"
         id="path2134" />
      <path
         style="fill:none;stroke:#000000;stroke-width:0.02;stroke-miterlimit:4;stroke-dasharray:none"
         d="M 224 188 L 224 196.085 L 221 196.085 L 221 201.915 L 224 201.915 L 224 210.085 L 221 210.085 L 221 215.915 L 224 215.915 L 224 224"
         id="path2136" />
      <path
         style="fill:none;stroke:#000000;stroke-width:0.02;stroke-miterlimit:4;stroke-dasharray:none"
         d="M 224 224 L 215.915 224 L 215.915 221 L 210.085 221 L 210.085 224 L 201.915 224 L 201.915 221 L 196.085 221 L 196.085 224 L 188 224"
         id="path2138" />
      <path
         style="fill:none;stroke:#000000;stroke-width:0.02;stroke-miterlimit:4;stroke-dasharray:none"
         d="M 188 224 L 188 215.915 L 191 215.915 L 191 210.085 L 188 210.085 L 188 201.915 L 191 201.915 L 191 196.085 L 188 196.085 L 188 188"
         id="path2140" />
    </g>
    <g
       id="panel8415"
       style="stroke-width:0.02;stroke-miterlimit:4;stroke-dasharray:none">
      <path
         style="fill:none;stroke:#000000;stroke-width:0.02;stroke-miterlimit:4;stroke-dasharray:none"
         d="M 228 191 L 230.915 191 L 230.915 188 L 237.085 188 L 237.085 191 L 242.915 191 L 242.915 188 L 249.085 188 L 249.085 191 L 254.915 191 L 254.915 188 L 261.085 188 L 261.085 191 L 266.915 191 L 266.915 188 L 273.085 188 L 273.085 191 L 278.915 191 L 278.915 188 L 285.085 188 L 285.085 191 L 290.915 191 L 290.915 188 L 297.085 188 L 297.085 191 L 302.915 191 L 302.915 188 L 309.085 188 L 309.085 191 L 314.915 191 L 314.915 188 L 321.085 188 L 321.085 191 L 326.915 191 L 326.915 188 L 333.085 188 L 333.085 191 L 338.915 191 L 338.915 188 L 345.085 188 L 345.085 191 L 350.915 191 L 350.915 188 L 357.085 188 L 357.085 191 L 362.915 191 L 362.915 188 L 369.085 188 L 369.085 191 L 374.915 191 L 374.915 188 L 381.085 188 L 381.085 191 L 386.915 191 L 386.915 188 L 393.085 188 L 393.085 191 L 398.915 191 L 398.915 188 L 405.085 188 L 405.085 191 L 408 191"
         id="path2143" />
      <path
         style="fill:none;stroke:#000000;stroke-width:0.02;stroke-miterlimit:4;stroke-dasharray:none"
         d="M 408 191 L 408 195.915 L 411 195.915 L 411 202.085 L 408 202.085 L 408 209.915 L 411 209.915 L 411 216.085 L 408 216.085 L 408 221"
         id="path2145" />
      <path
         style="fill:none;stroke:#000000;stroke-width:0.02;stroke-miterlimit:4;stroke-dasharray:none"
         d="M 408 221 L 405.085 221 L 405.085 224 L 398.915 224 L 398.915 221 L 393.085 221 L 393.085 224 L 386.915 224 L 386.915 221 L 381.085 221 L 381.085 224 L 374.915 224 L 374.915 221 L 369.085 221 L 369.085 224 L 362.915 224 L 362.915 221 L 357.085 221 L 357.085 224 L 350.915 224 L 350.915 221 L 345.085 221 L 345.085 224 L 338.915 224 L 338.915 221 L 333.085 221 L 333.085 224 L 326.915 224 L 326.915 221 L 321.085 221 L 321.085 224 L 314.915 224 L 314.915 221 L 309.085 221 L 309.085 224 L 302.915 224 L 302.915 221 L 297.085 221 L 297.085 224 L 290.915 224 L 290.915 221 L 285.085 221 L 285.085 224 L 278.915 224 L 278.915 221 L 273.085 221 L 273.085 224 L 266.915 224 L 266.915 221 L 261.085 221 L 261.085 224 L 254.915 224 L 254.915 221 L 249.085 221 L 249.085 224 L 242.915 224 L 242.915 221 L 237.085 221 L 237.085 224 L 230.915 224 L 230.915 221 L 228 221"
         id="path2147" />
      <path
         style="fill:none;stroke:#000000;stroke-width:0.02;stroke-miterlimit:4;stroke-dasharray:none"
         d="M 228 221 L 228 216.085 L 225 216.085 L 225 209.915 L 228 209.915 L 228 202.085 L 225 202.085 L 225 195.915 L 228 195.915 L 228 191"
         id="path2149" />
    </g>
    <g
       id="panel1524"
       style="stroke-width:0.02;stroke-miterlimit:4;stroke-dasharray:none">
      <path
         style="fill:none;stroke:#000000;stroke-width:0.02;stroke-miterlimit:4;stroke-dasharray:none"
         d="M 412 188 L 420.085 188 L 420.085 191 L 425.915 191 L 425.915 188 L 434.085 188 L 434.085 191 L 439.915 191 L 439.915 188 L 448 188"
         id="path2152" />
      <path
         style="fill:none;stroke:#000000;stroke-width:0.02;stroke-miterlimit:4;stroke-dasharray:none"
         d="M 448 188 L 448 196.085 L 445 196.085 L 445 201.915 L 448 201.915 L 448 210.085 L 445 210.085 L 445 215.915 L 448 215.915 L 448 224"
         id="path2154" />
      <path
         style="fill:none;stroke:#000000;stroke-width:0.02;stroke-miterlimit:4;stroke-dasharray:none"
         d="M 448 224 L 439.915 224 L 439.915 221 L 434.085 221 L 434.085 224 L 425.915 224 L 425.915 221 L 420.085 221 L 420.085 224 L 412 224"
         id="path2156" />
      <path
         style="fill:none;stroke:#000000;stroke-width:0.02;stroke-miterlimit:4;stroke-dasharray:none"
         d="M 412 224 L 412 215.915 L 415 215.915 L 415 210.085 L 412 210.085 L 412 201.915 L 415 201.915 L 415 196.085 L 412 196.085 L 412 188"
         id="path2158" />
    </g>
    <g
       id="panel6204"
       style="stroke-width:0.02;stroke-miterlimit:4;stroke-dasharray:none">
      <path
         style="fill:none;stroke:#000000;stroke-width:0.02;stroke-miterlimit:4;stroke-dasharray:none"
         d="M 188 4 L 195.915 4 L 195.915 1 L 202.085 1 L 202.085 4 L 209.915 4 L 209.915 1 L 216.085 1 L 216.085 4 L 224 4"
         id="path2161" />
      <path
         style="fill:none;stroke:#000000;stroke-width:0.02;stroke-miterlimit:4;stroke-dasharray:none"
         d="M 224 4 L 224 7.085 L 221 7.085 L 221 12.915 L 224 12.915 L 224 19.085 L 221 19.085 L 221 24.915 L 224 24.915 L 224 31.085 L 221 31.085 L 221 36.915 L 224 36.915 L 224 43.085 L 221 43.085 L 221 48.915 L 224 48.915 L 224 55.085 L 221 55.085 L 221 60.915 L 224 60.915 L 224 67.085 L 221 67.085 L 221 72.915 L 224 72.915 L 224 79.085 L 221 79.085 L 221 84.915 L 224 84.915 L 224 91.085 L 221 91.085 L 221 96.915 L 224 96.915 L 224 103.085 L 221 103.085 L 221 108.915 L 224 108.915 L 224 115.085 L 221 115.085 L 221 120.915 L 224 120.915 L 224 127.085 L 221 127.085 L 221 132.915 L 224 132.915 L 224 139.085 L 221 139.085 L 221 144.915 L 224 144.915 L 224 151.085 L 221 151.085 L 221 156.915 L 224 156.915 L 224 163.085 L 221 163.085 L 221 168.915 L 224 168.915 L 224 175.085 L 221 175.085 L 221 180.915 L 224 180.915 L 224 184"
         id="path2163" />
      <path
         style="fill:none;stroke:#000000;stroke-width:0.02;stroke-miterlimit:4;stroke-dasharray:none"
         d="M 224 184 L 216.085 184 L 216.085 187 L 209.915 187 L 209.915 184 L 202.085 184 L 202.085 187 L 195.915 187 L 195.915 184 L 188 184"
         id="path2165" />
      <path
         style="fill:none;stroke:#000000;stroke-width:0.02;stroke-miterlimit:4;stroke-dasharray:none"
         d="M 188 184 L 188 180.915 L 191 180.915 L 191 175.085 L 188 175.085 L 188 168.915 L 191 168.915 L 191 163.085 L 188 163.085 L 188 156.915 L 191 156.915 L 191 151.085 L 188 151.085 L 188 144.915 L 191 144.915 L 191 139.085 L 188 139.085 L 188 132.915 L 191 132.915 L 191 127.085 L 188 127.085 L 188 120.915 L 191 120.915 L 191 115.085 L 188 115.085 L 188 108.915 L 191 108.915 L 191 103.085 L 188 103.085 L 188 96.915 L 191 96.915 L 191 91.085 L 188 91.085 L 188 84.915 L 191 84.915 L 191 79.085 L 188 79.085 L 188 72.915 L 191 72.915 L 191 67.085 L 188 67.085 L 188 60.915 L 191 60.915 L 191 55.085 L 188 55.085 L 188 48.915 L 191 48.915 L 191 43.085 L 188 43.085 L 188 36.915 L 191 36.915 L 191 31.085 L 188 31.085 L 188 24.915 L 191 24.915 L 191 19.085 L 188 19.085 L 188 12.915 L 191 12.915 L 191 7.085 L 188 7.085 L 188 4"
         id="path2167" />
    </g>
    <g
       id="panel7326"
       transform="translate(397.49999,128.5)"
       style="stroke-width:0.02;stroke-miterlimit:4;stroke-dasharray:none">
      <path
         style="fill:none;stroke:#000000;stroke-width:0.02;stroke-miterlimit:4;stroke-dasharray:none"
         d="m 25,70 h 4.415 v 0 h 6.17 v 0 H 40"
         id="path2301" />
      <path
         style="fill:none;stroke:#000000;stroke-width:0.02;stroke-miterlimit:4;stroke-dasharray:none"
         d="m 40,70 v 4.415 0 6.17 0 V 85"
         id="path2303" />
      <path
         style="fill:none;stroke:#000000;stroke-width:0.02;stroke-miterlimit:4;stroke-dasharray:none"
         d="m 40,85 h -4.415 v 0 h -6.17 v 0 H 25"
         id="path2305" />
      <path
         style="fill:none;stroke:#000000;stroke-width:0.02;stroke-miterlimit:4;stroke-dasharray:none"
         d="m 25,85 v -4.415 0 -6.17 0 V 70"
         id="path2307" />
    </g>
    <g
       id="panel3542"
       transform="translate(193.585,128.5)"
       style="stroke-width:0.02;stroke-miterlimit:4;stroke-dasharray:none">
      <path
         style="fill:none;stroke:#000000;stroke-width:0.02;stroke-miterlimit:4;stroke-dasharray:none"
         d="m 47,70 h 4.415 v 0 h 6.17 v 0 H 62"
         id="path2310" />
      <path
         style="fill:none;stroke:#000000;stroke-width:0.02;stroke-miterlimit:4;stroke-dasharray:none"
         d="m 62,70 v 4.415 0 6.17 0 V 85"
         id="path2312" />
      <path
         style="fill:none;stroke:#000000;stroke-width:0.02;stroke-miterlimit:4;stroke-dasharray:none"
         d="m 62,85 h -4.415 v 0 h -6.17 v 0 H 47"
         id="path2314" />
      <path
         style="fill:none;stroke:#000000;stroke-width:0.02;stroke-miterlimit:4;stroke-dasharray:none"
         d="m 47,85 v -4.415 0 -6.17 0 V 70"
         id="path2316" />
    </g>
  </g>
</svg>
