<?xml version="1.0" encoding="UTF-8" standalone="no"?>
<svg
   xmlns:dc="http://purl.org/dc/elements/1.1/"
   xmlns:cc="http://creativecommons.org/ns#"
   xmlns:rdf="http://www.w3.org/1999/02/22-rdf-syntax-ns#"
   xmlns:svg="http://www.w3.org/2000/svg"
   xmlns="http://www.w3.org/2000/svg"
   xmlns:sodipodi="http://sodipodi.sourceforge.net/DTD/sodipodi-0.dtd"
   xmlns:inkscape="http://www.inkscape.org/namespaces/inkscape"
   sodipodi:docname="runko_180mmkerf_FINAL2.svg"
   id="svg196"
   version="1.1"
   viewBox="0 0 186.02 56.02"
   height="56.02mm"
   width="186.02mm"
   inkscape:version="1.0.1 (3bc2e813f5, 2020-09-07)">
  <defs
     id="defs190" />
  <sodipodi:namedview
     id="base"
     pagecolor="#ffffff"
     bordercolor="#666666"
     borderopacity="1.0"
     inkscape:pageopacity="0.0"
     inkscape:pageshadow="2"
     inkscape:zoom="0.49497475"
     inkscape:cx="-2.6952149"
     inkscape:cy="-98.662968"
     inkscape:document-units="mm"
     inkscape:current-layer="layer1"
     inkscape:document-rotation="0"
     showgrid="false"
     inkscape:window-width="1920"
     inkscape:window-height="1137"
     inkscape:window-x="-8"
     inkscape:window-y="-8"
     inkscape:window-maximized="1"
     inkscape:snap-object-midpoints="true"
     inkscape:snap-center="true"
     fit-margin-top="0"
     fit-margin-left="0"
     fit-margin-right="0"
     fit-margin-bottom="0" />
  <metadata
     id="metadata193">
    <rdf:RDF>
      <cc:Work
         rdf:about="">
        <dc:format>image/svg+xml</dc:format>
        <dc:type
           rdf:resource="http://purl.org/dc/dcmitype/StillImage" />
        <dc:title></dc:title>
      </cc:Work>
    </rdf:RDF>
  </metadata>
  <g
     inkscape:label="Layer 1"
     inkscape:groupmode="layer"
     id="layer1"
     transform="translate(-57.99,-164.99)">
    <g
       id="panel6269"
       style="stroke-width:0.02;stroke-miterlimit:4;stroke-dasharray:none;fill:none;stroke:#000000;stroke-opacity:1">
      <path
         style="fill:none;stroke:#000000;stroke-width:0.02;stroke-miterlimit:4;stroke-dasharray:none;stroke-opacity:1"
         d="m 58,168 h 5.915 v -3 h 6.17 v 3 h 5.83 v -3 h 6.17 v 3 h 5.83 v -3 h 6.17 v 3 h 5.83 v -3 h 6.17 v 3 h 5.83 v -3 h 6.17 v 3 h 5.83 v -3 h 6.17 v 3 h 5.83 v -3 h 6.17 v 3 h 5.83 v -3 h 6.17 v 3 h 5.83 v -3 h 6.17 v 3 h 5.83 v -3 h 6.17 v 3 h 5.83 v -3 h 6.17 v 3 h 5.83 v -3 h 6.17 v 3 h 5.83 v -3 h 6.17 v 3 h 5.83 v -3 h 6.17 v 3 h 5.83 v -3 h 6.17 v 3 H 244"
         id="path345" />
      <path
         style="fill:none;stroke:#000000;stroke-width:0.02;stroke-miterlimit:4;stroke-dasharray:none;stroke-opacity:1"
         d="m 244,168 v 3.485 h -3 v 5.83 h 3 v 6.57 h -3 v 5.83 h 3 v 6.57 h -3 v 5.83 h 3 v 6.57 h -3 v 5.83 h 3 V 218"
         id="path347" />
      <path
         style="fill:none;stroke:#000000;stroke-width:0.02;stroke-miterlimit:4;stroke-dasharray:none;stroke-opacity:1"
         d="m 244,218 h -5.915 v 3 h -6.17 v -3 h -5.83 v 3 h -6.17 v -3 h -5.83 v 3 h -6.17 v -3 h -5.83 v 3 h -6.17 v -3 h -5.83 v 3 h -6.17 v -3 h -5.83 v 3 h -6.17 v -3 h -5.83 v 3 h -6.17 v -3 h -5.83 v 3 h -6.17 v -3 h -5.83 v 3 h -6.17 v -3 h -5.83 v 3 h -6.17 v -3 h -5.83 v 3 h -6.17 v -3 h -5.83 v 3 h -6.17 v -3 h -5.83 v 3 h -6.17 v -3 h -5.83 v 3 h -6.17 v -3 h -5.83 v 3 h -6.17 v -3 H 58"
         id="path349" />
      <path
         style="fill:none;stroke:#000000;stroke-width:0.02;stroke-miterlimit:4;stroke-dasharray:none;stroke-opacity:1"
         d="m 58,218 v -3.485 h 3 v -5.83 h -3 v -6.57 h 3 v -5.83 h -3 v -6.57 h 3 v -5.83 h -3 v -6.57 h 3 v -5.83 H 58 V 168"
         id="path351" />
    </g>
    <g
       id="panel1939"
       transform="translate(213.01,125.01)"
       style="stroke-width:0.02;stroke-miterlimit:4;stroke-dasharray:none;fill:none;stroke:#000000;stroke-opacity:1">
      <path
         style="fill:none;stroke:#000000;stroke-width:0.02;stroke-miterlimit:4;stroke-dasharray:none;stroke-opacity:1"
         d="m 3,70 h 4.415 v 0 h 6.17 v 0 H 18"
         id="path964" />
      <path
         style="fill:none;stroke:#000000;stroke-width:0.02;stroke-miterlimit:4;stroke-dasharray:none;stroke-opacity:1"
         d="m 18,70 v 4.415 0 6.17 0 V 85"
         id="path966" />
      <path
         style="fill:none;stroke:#000000;stroke-width:0.02;stroke-miterlimit:4;stroke-dasharray:none;stroke-opacity:1"
         d="m 18,85 h -4.415 v 0 h -6.17 v 0 H 3"
         id="path968" />
      <path
         style="fill:none;stroke:#000000;stroke-width:0.02;stroke-miterlimit:4;stroke-dasharray:none;stroke-opacity:1"
         d="m 3,85 v -4.415 0 -6.17 0 V 70"
         id="path970" />
    </g>
  </g>
</svg>
